HIERARCHY
ROOT Hips
{
	OFFSET 0.00000 0.00000 0.00000
	CHANNELS 6 Xposition Yposition Zposition Zrotation Yrotation Xrotation 
	JOINT LHipJoint
	{
		OFFSET 0 0 0
		CHANNELS 3 Zrotation Yrotation Xrotation
		JOINT LeftHip
		{
			OFFSET 3.13874 -1.57224 1.49786
			CHANNELS 3 Zrotation Yrotation Xrotation
			JOINT LeftKnee
			{
				OFFSET 2.10955 -5.79594 0.00000
				CHANNELS 3 Zrotation Yrotation Xrotation
				JOINT LeftAnkle
				{
					OFFSET 2.41843 -6.64458 0.00000
					CHANNELS 3 Zrotation Yrotation Xrotation
					JOINT LeftToe
					{
						OFFSET 0.04713 -0.12948 1.66229
						CHANNELS 3 Zrotation Yrotation Xrotation
						End Site
						{
							OFFSET 0.00000 -0.00000 0.85167
						}
					}
				}
			}
		}
	}
	JOINT RHipJoint
	{
		OFFSET 0 0 0
		CHANNELS 3 Zrotation Yrotation Xrotation
		JOINT RightHip
		{
			OFFSET -3.13988 -1.57224 1.49786
			CHANNELS 3 Zrotation Yrotation Xrotation
			JOINT RightKnee
			{
				OFFSET -2.15006 -5.90725 0.00000
				CHANNELS 3 Zrotation Yrotation Xrotation
				JOINT RightAnkle
				{
					OFFSET -2.34496 -6.44273 0.00000
					CHANNELS 3 Zrotation Yrotation Xrotation
					JOINT RightToe
					{
						OFFSET -0.08699 -0.23900 1.55223
						CHANNELS 3 Zrotation Yrotation Xrotation
						End Site
						{
							OFFSET -0.00000 -0.00000 0.80281
						}
					}
				}
			}
		}
	}
	JOINT lowerback
	{
		OFFSET 0 0 0
		CHANNELS 3 Zrotation Yrotation Xrotation
		JOINT Chest
		{
			OFFSET 0.01292 1.96517 -0.16495
			CHANNELS 3 Zrotation Yrotation Xrotation
			JOINT Chest2
			{
				OFFSET 0.02122 1.88666 0.19706
				CHANNELS 3 Zrotation Yrotation Xrotation
				JOINT lowerneck
				{
					OFFSET 0 0 0
					CHANNELS 3 Zrotation Yrotation Xrotation
					JOINT Neck
					{
						OFFSET -0.01683 1.81591 0.07903
						CHANNELS 3 Zrotation Yrotation Xrotation
						JOINT Head
						{
							OFFSET 0.00815 1.74013 -0.47700
							CHANNELS 3 Zrotation Yrotation Xrotation
							End Site
							{
								OFFSET -0.00204 1.83225 -0.16933
							}
						}
					}
				}
				JOINT LeftCollar
				{
					OFFSET 0 0 0
					CHANNELS 3 Zrotation Yrotation Xrotation
					JOINT LeftShoulder
					{
						OFFSET 3.38482 1.41533 0.19802
CHANNELS 3 Zrotation Xrotation Yrotation
						JOINT LeftElbow
						{
OFFSET 0 -4.327120 0.000000
CHANNELS 3 Zrotation Xrotation Yrotation
							JOINT LeftWrist
							{
OFFSET 0 -3.285870 -0.000000
CHANNELS 3 Zrotation Xrotation Yrotation
								JOINT lhand
								{
									OFFSET 0 0 0
CHANNELS 3 Zrotation Xrotation Yrotation
									JOINT LFingers
									{
OFFSET 0 -0.433160 -0.000000
CHANNELS 3 Zrotation Xrotation Yrotation
										End Site
										{
OFFSET 0 -0.349220 -0.000000
										}
									}
								}
								JOINT LThumb
								{
OFFSET 0 0.000000 0.000000
CHANNELS 3 Zrotation Xrotation Yrotation
									End Site
									{
OFFSET 0 -0.354560 0.354560
									}
								}
							}
						}
					}
				}
				JOINT RightCollar
				{
					OFFSET 0 0 0
					CHANNELS 3 Zrotation Yrotation Xrotation
					JOINT RightShoulder
					{
						OFFSET -3.09725 1.62858 -0.14144
CHANNELS 3 Zrotation Xrotation Yrotation
						JOINT RightElbow
						{
OFFSET 0 -4.291040 0.000000
CHANNELS 3 Zrotation Xrotation Yrotation
							JOINT RightWrist
							{
OFFSET 0 -3.227200 -0.000000
CHANNELS 3 Zrotation Xrotation Yrotation
								JOINT rhand
								{
									OFFSET 0 0 0
CHANNELS 3 Zrotation Xrotation Yrotation
									JOINT RFingers
									{
OFFSET 0 -0.543620 -0.000000
CHANNELS 3 Zrotation Xrotation Yrotation
										End Site
										{
OFFSET 0 -0.438280 -0.000000
										}
									}
								}
								JOINT RThumb
								{
OFFSET 0 0.000000 0.000000
CHANNELS 3 Zrotation Xrotation Yrotation
									End Site
									{
OFFSET 0 -0.444970 0.444970
									}
								}
							}
						}
					}
				}
			}
		}
	}
}
MOTION
Frames: 9
Frame Time: 0.008333333333333333
4.722312 20.746660 3.224967 -118.172710 -87.578916 139.381543 0.000000 0.000000 0.000000 -19.744183 -30.164025 -60.829215 11.419882 18.131137 64.133851 0.993090 -23.831879 -23.045549 1.173279 -6.875351 -19.346572 0.000000 0.000000 0.000000 32.114817 17.138048 -0.033901 0.000000 0.016462 -0.045265 1.088652 -18.703360 -12.259876 -0.032014 0.523442 -1.442310 -1.341181 1.509817 15.470995 -0.567804 1.608493 -7.086161 -0.364554 0.804170 -16.909924 -2.403861 -0.825408 -17.409507 2.091737 -3.674649 43.453123 0.461264 -2.187946 20.025134 0.000000 0.000000 0.000000 14.281602 11.325367 -35.596012 41.868323 -49.138633 19.840922 35.256827 15.434882 -24.121627 0.000000 0.000000 0.000000 -7.125000 0.000000 0.000000 6.856968 58.587435 -2.286096 0.000000 0.000000 0.000000 -37.335846 6.453538 38.259061 -50.529893 -53.206865 -26.597925 -23.650928 -8.511428 15.748194 0.000000 0.000000 0.000000 7.125000 0.000000 0.000000 3.861790 47.053933 -0.195734
4.648356 20.845597 3.233534 -116.525341 -87.398691 138.056215 0.000000 0.000000 0.000000 -19.716970 -29.794059 -60.162227 11.053604 17.957673 62.951146 0.958628 -23.806520 -22.833693 1.151030 -6.811643 -19.158689 0.000000 0.000000 0.000000 31.963601 16.810575 -0.603356 -0.000122 -0.013383 0.036757 1.253385 -19.755596 -11.895403 -0.035442 -0.653868 1.801219 -1.281108 1.507166 15.388398 -0.536849 1.623999 -7.108870 -0.365631 0.807042 -16.883936 -2.385922 -0.821382 -17.437155 2.208927 -3.734031 43.456957 0.503587 -2.191329 20.042872 0.000000 0.000000 0.000000 14.340855 10.893397 -35.637928 41.938826 -49.177519 19.894263 35.477979 15.706153 -24.225398 0.000000 0.000000 0.000000 -7.125000 0.000000 0.000000 7.108638 58.761189 -2.399627 0.000000 0.000000 0.000000 -37.263919 6.782624 38.144782 -50.657314 -53.257165 -26.699984 -23.799320 -8.538195 15.789453 0.000000 0.000000 0.000000 7.125000 0.000000 0.000000 3.729227 47.119133 -0.195187
4.574627 20.944861 3.242756 -115.191568 -87.189551 137.029359 0.000000 0.000000 0.000000 -19.675816 -29.385498 -59.484879 10.685007 17.773721 61.749610 0.916781 -23.799033 -22.586722 1.118950 -6.719171 -18.886282 0.000000 0.000000 0.000000 31.789269 16.248258 -1.375060 -0.000370 -0.101839 0.279761 1.416909 -20.755826 -11.522938 -0.107337 -1.834480 5.054832 -1.197313 1.505877 15.311297 -0.499315 1.647799 -7.127116 -0.375052 0.811604 -16.855327 -2.364403 -0.808937 -17.470425 2.333479 -3.786986 43.470294 0.550145 -2.190982 20.068853 0.000000 0.000000 0.000000 14.382058 10.485729 -35.627813 42.008043 -49.215599 19.946672 35.651866 15.915788 -24.326497 0.000000 0.000000 0.000000 -7.125000 0.000000 0.000000 7.305630 58.920449 -2.494479 0.000000 0.000000 0.000000 -37.214931 7.117307 38.080870 -50.755190 -53.295542 -26.778473 -23.886833 -8.495058 15.828822 0.000000 0.000000 0.000000 7.125000 0.000000 0.000000 3.653812 47.173922 -0.196179
4.501391 21.042925 3.252496 -114.215120 -86.962851 136.337937 0.000000 0.000000 0.000000 -19.636922 -28.942617 -58.793407 10.317610 17.580966 60.539788 0.868224 -23.810448 -22.308420 1.078420 -6.599464 -18.534642 0.000000 0.000000 0.000000 31.609240 15.458388 -2.346801 -0.002736 -0.265761 0.730241 1.587894 -21.759470 -10.922825 -0.175419 -2.669184 7.360802 -1.101114 1.506330 15.244201 -0.459074 1.677060 -7.140749 -0.390145 0.817531 -16.827094 -2.335587 -0.782227 -17.523444 2.459678 -3.825699 43.511126 0.598963 -2.184350 20.119056 0.000000 0.000000 0.000000 14.413987 10.104424 -35.580694 42.082510 -49.256432 20.003083 35.777614 16.041742 -24.408294 0.000000 0.000000 0.000000 -7.125000 0.000000 0.000000 7.447304 59.045600 -2.565062 0.000000 0.000000 0.000000 -37.185198 7.450719 38.056810 -50.815145 -53.319043 -26.826550 -23.913286 -8.382951 15.865883 0.000000 0.000000 0.000000 7.125000 0.000000 0.000000 3.635927 47.217459 -0.199242
4.428703 21.139661 3.262809 -113.634012 -86.716723 136.017633 0.000000 0.000000 0.000000 -19.600529 -28.461764 -58.086309 9.951541 17.378470 59.320799 0.812245 -23.842775 -21.995455 1.028539 -6.449626 -18.095340 0.000000 0.000000 0.000000 31.422908 14.416756 -3.539858 -0.007447 -0.513178 1.410266 1.767136 -22.766890 -10.070847 -0.239281 -3.121179 8.618317 -0.991189 1.508710 15.188172 -0.415838 1.712363 -7.149277 -0.411516 0.824968 -16.799279 -2.298697 -0.739735 -17.598314 2.587701 -3.848655 43.582376 0.650281 -2.170765 20.196058 0.000000 0.000000 0.000000 14.435654 9.752288 -35.492636 42.162784 -49.300313 20.063921 35.850104 16.075111 -24.468736 0.000000 0.000000 0.000000 -7.125000 0.000000 0.000000 7.527777 59.133014 -2.608793 0.000000 0.000000 0.000000 -37.176769 7.782724 38.076841 -50.833143 -53.326083 -26.840978 -23.872182 -8.194537 15.900393 0.000000 0.000000 0.000000 7.125000 0.000000 0.000000 3.681691 47.248547 -0.204597
4.356742 21.233944 3.273463 -113.373264 -86.465305 135.991125 0.000000 0.000000 0.000000 -19.581913 -27.954030 -57.358981 9.589219 17.168596 58.101106 0.753270 -23.887364 -21.669093 0.975276 -6.284779 -17.613717 0.000000 0.000000 0.000000 31.252629 13.230791 -4.894209 -0.020762 -0.851255 2.340246 1.935479 -23.754285 -8.831938 -0.239571 -3.114634 8.600678 -0.880674 1.512475 15.143678 -0.374009 1.749368 -7.152538 -0.435587 0.833041 -16.772280 -2.231656 -0.683574 -17.688714 2.686502 -3.852086 43.674605 0.685592 -2.148960 20.289839 0.000000 0.000000 0.000000 14.455415 9.426149 -35.381373 42.249597 -49.347599 20.129753 35.891852 16.037120 -24.498004 0.000000 0.000000 0.000000 -7.125000 0.000000 0.000000 7.574851 59.177062 -2.633113 0.000000 0.000000 0.000000 -37.180351 8.109689 38.125571 -50.807436 -53.316005 -26.820351 -23.785442 -7.947795 15.930588 0.000000 0.000000 0.000000 7.125000 0.000000 0.000000 3.770073 47.268511 -0.211360
4.285640 21.325325 3.284520 -113.491766 -86.207624 136.312421 0.000000 0.000000 0.000000 -19.584342 -27.414471 -56.607705 9.231331 16.949986 56.880580 0.690746 -23.946466 -21.326874 0.918008 -6.102166 -17.081993 0.000000 0.000000 0.000000 31.101352 11.873962 -6.439501 -0.044264 -1.296655 3.566127 2.090920 -24.717973 -7.134972 -0.164602 -2.565258 7.073484 -0.769460 1.517879 15.112837 -0.333847 1.788390 -7.149563 -0.462858 0.841867 -16.746249 -2.128921 -0.611233 -17.797498 2.750712 -3.832402 43.791670 0.701955 -2.117425 20.403482 0.000000 0.000000 0.000000 14.472917 9.130785 -35.242641 42.344152 -49.398917 20.201499 35.897207 15.914651 -24.490368 0.000000 0.000000 0.000000 -7.125000 0.000000 0.000000 7.582388 59.169774 -2.634452 0.000000 0.000000 0.000000 -37.198151 8.430687 38.208275 -50.729987 -53.285660 -26.758224 -23.644677 -7.632003 15.955677 0.000000 0.000000 0.000000 7.125000 0.000000 0.000000 3.908904 47.275303 -0.219789
4.215239 21.413360 3.295708 -113.893482 -85.956701 136.884781 0.000000 0.000000 0.000000 -19.620560 -26.856914 -55.827889 8.878430 16.725121 55.663137 0.629141 -24.008565 -20.989772 0.861768 -5.917323 -16.545479 0.000000 0.000000 0.000000 30.971901 10.502437 -8.076844 -0.088258 -1.835025 5.052390 2.181977 -25.523958 -5.084919 -0.100109 -1.567509 4.318650 -0.669596 1.523743 15.094069 -0.299547 1.824612 -7.140355 -0.489844 0.850277 -16.720393 -2.019997 -0.535874 -17.883494 2.807879 -3.806529 43.895197 0.715299 -2.083726 20.500548 0.000000 0.000000 0.000000 14.493832 8.857554 -35.093258 42.437306 -49.449339 20.272240 35.902387 15.767600 -24.461343 0.000000 0.000000 0.000000 -7.125000 0.000000 0.000000 7.592483 59.138057 -2.632204 0.000000 0.000000 0.000000 -37.221922 8.743921 38.311843 -50.605148 -53.236464 -26.658197 -23.486044 -7.284325 15.968497 0.000000 0.000000 0.000000 7.125000 0.000000 0.000000 4.062169 47.266416 -0.227431
4.145724 21.497155 3.307063 -114.654080 -85.714341 137.775285 0.000000 0.000000 0.000000 -19.699595 -26.276549 -55.011908 8.531848 16.492331 54.449602 0.568699 -24.074460 -20.659155 0.806831 -5.729653 -16.002896 0.000000 0.000000 0.000000 30.870108 9.112288 -9.830829 -0.158219 -2.491201 6.868602 2.191447 -26.130106 -2.587442 -0.048890 -0.001590 0.008184 -0.584116 1.530189 15.090598 -0.272673 1.857287 -7.123249 -0.516470 0.858161 -16.694759 -1.903230 -0.456690 -17.940613 2.856123 -3.772812 43.981570 0.724819 -2.047282 20.576608 0.000000 0.000000 0.000000 14.519069 8.612368 -34.930379 42.528687 -49.498624 20.341705 35.907345 15.589400 -24.405216 0.000000 0.000000 0.000000 -7.125000 0.000000 0.000000 7.605821 59.075384 -2.625411 0.000000 0.000000 0.000000 -37.253258 9.047317 38.441848 -50.420254 -53.163379 -26.510143 -23.304770 -6.896242 15.965770 0.000000 0.000000 0.000000 7.125000 0.000000 0.000000 4.233725 47.237658 -0.234075
